M48
;Layer_Color=9474304
;FILE_FORMAT=4:4
METRIC
;TYPE=PLATED
T1F00S00C0.3000
T2F00S00C0.4000
T3F00S00C1.1000
T4F00S00C3.5000
%
T01
X00055500Y00006750
X00075500
X00095500
X00115500
X00135500
X00145500Y00026750
X00125500
X00105500
X00085500
X00065500
X00075500Y00046750
X00095500
X00115500
X00135500
X00145500Y00066750
X00125500
X00105500
X00085500
X00065500
X00045500
X00025500
X00035500Y00086750
X00055500
X00075500
X00095500
X00115500
X00135500
X00145500Y00106750
X00125500
X00105500
X00085500
X00065500
X00045500
X00025500
X00035500Y00126750
X00055500
X00075500
X00095500
X00115500
X00135500
X00145500Y00146750
X00125500
X00105500
X00085500
X00065500
X00045500
X00025500
X00035500Y00166750
X00055500
X00075500
X00095500
X00115500
X00135500
X00145500Y00186750
X00125500
X00105500
X00085500
X00065500
X00045500
X00025500
X00015500Y00166750
Y00126750
Y00086750
X00055500Y00046750
X00155500
X00165500Y00066750
X00185500
X00205500
X00225500
X00245500
X00265500
X00285500
X00305500
X00325500
X00345500
X00365500
X00385500
X00405500
X00425500
X00445500
X00465500
X00485500
X00505500
X00532496Y00065375
X00535500Y00086750
X00545500Y00106750
X00525500
X00505500
X00485500
X00465500
X00445500
X00425500
X00405500
X00385500
X00365500
X00345500
X00325500
X00305500
X00285500
X00265500
X00245500
X00225500
X00205500
X00185500
X00165500
X00175500Y00126750
X00195500
X00215500
X00235500
X00255500
X00275500
X00295500
X00315500
X00335500
X00355500
X00375500
X00395500
X00415500
X00435500
X00455500
X00475500
X00495500
X00515500
X00535500
X00545500Y00146750
X00525500
X00505500
X00485500
X00465500
X00445500
X00425500
X00405500
X00385500
X00365500
X00345500
X00325500
X00305500
X00285500
X00265500
X00245500
X00225500
X00205500
X00185500
X00165500
X00175500Y00166750
X00195500
X00215500
X00235500
X00255500
X00275500
X00295500
X00315500
X00335500
X00355500
X00375500
X00395500
X00415500
X00435500
X00455500
X00475500
X00495500
X00515500
X00535500
X00545500Y00186750
X00525500
X00505500
X00485500
X00465500
X00445500
X00425500
X00405500
X00385500
X00365500
X00345500
X00325500
X00305500
X00285500
X00265500
X00245500
X00225500
X00205500
X00185500
X00165500
X00155500Y00166750
Y00126750
Y00086750
X00175500
X00195500
X00215500
X00235500
X00255500
X00275500
X00295500
X00315500
X00335500
X00355500
X00375500
X00395500
X00415500
X00435500
X00455500
X00475500
X00495500
X00505500Y00026750
X00525500
X00545500
X00535500Y00006750
X00515500
X00495500
X00475500
X00455500
X00435500
X00415500
X00395500
X00375500
X00355500
X00335500
X00315500
X00295500
X00275500
X00255500
X00235500
X00215500
X00195500
X00175500
X00155500
X00165500Y00026750
X00185500
X00205500
X00225500
X00245500
X00265500
X00285500
X00305500
X00325500
X00345500
X00365500
X00385500
X00405500
X00425500
X00445500
X00465500
X00485500
X00565500
X00585500
X00605500
X00625500
X00645500
X00665500
X00685500
X00705500
X00725500
X00745500
X00765501
X00785501
X00805501
X00825501
X00845501
X00855501Y00046750
X00835501
X00815501
X00795501
X00775501
X00755500
X00735500
X00715500
X00695500
X00675500
X00655500
X00635500
X00645500Y00066750
X00665500
X00685500
X00705500
X00725500
X00745500
X00765501
X00785501
X00805501
X00825501
X00845501
X00865501
X00885501
X00905501
X00895501Y00086750
X00875501
X00855501
X00835501
X00815501
X00795501
X00775501
X00755500
X00735500
X00715500
X00695500
X00675500
X00655500
X00635500
X00645500Y00106750
X00665500
X00685500
X00705500
X00725500
X00745500
X00765501
X00785501
X00805501
X00825501
X00845501
X00855501Y00126750
X00875501
X00895501
X00905501Y00146750
X00885501
X00895501Y00166750
X00905501Y00186750
X00885501
X00845501
X00825501
X00805501
X00785501
X00765501
X00745500
X00725500
X00705500
X00685500
X00665500
X00675500Y00166750
X00655500
X00635500
X00645500Y00146750
X00625500
X00635500Y00126750
X00615500
X00595500
X00605500Y00106750
X00585500
X00595500Y00086750
X00575500
X00555500
X00565500Y00066750
X00605500
X00625500
X00635500Y00006750
X00655500
X00675500
X00695500
X00715500
X00735500
X00755500
X00775501
X00795501
X00815501
X00835501
X00855501
X00885501Y00106750
X00905501
X00835501Y00126750
X00815501
X00795501
X00775501
X00755500
X00735500
X00715500
X00695500
X00675500
X00685500Y00146750
X00705500
X00725500
X00745500
X00765501
X00785501
X00805501
X00825501
X00845501
X00605281Y00165979
X00605500Y00186750
X00625500
X00585500
X00565500
X00575500Y00166750
X00555500
X00565500Y00146750
X00585500
X00565492Y00124573
X00555500Y00006750
X00575500
X00595500
X00615500
Y00206750
X00595500
X00575500
X00555500
X00565500Y00226750
X00585500
X00605500
X00625500
X00645500
X00665500
X00675500Y00206750
X00695500
X00715500
X00735500
X00755500
X00775501
X00795501
X00815501
X00835501
X00845501Y00226750
X00865501
X00885501
X00905501
X00895501Y00246750
X00875501
X00855501
X00835501
X00815501
X00812926Y00261578
X00805501Y00226750
X00764321Y00234598
X00775501Y00246750
X00735500
X00715500
X00725500Y00226750
X00705500
Y00266750
X00685500
X00665500
X00645500
X00625500
X00605500
X00585500
X00565500
X00575500Y00286750
X00595500
X00615500
X00635500
X00655500
X00675500
X00695500
X00715500
X00725500Y00306750
X00745500
X00755500Y00286750
X00774283Y00297300
X00805501Y00306750
X00825501
X00835501Y00326750
X00815501
X00795501
X00785501Y00346750
X00765501
X00775501Y00366750
X00755500
X00765501Y00386750
X00745500
X00748187Y00403712
X00744371Y00422592
X00725500Y00426750
X00705500
X00685500
X00665500
X00645500
X00625500
X00605500
X00585500
X00565500
X00575500Y00446750
X00595500
X00615500
X00635500
X00655500
X00675500
X00695500
X00715500
X00705500Y00466750
X00685500
X00665500
X00645500
X00625500
X00605500
X00585500
X00565500
X00555500Y00446750
Y00406750
X00575500
X00595500
X00615500
X00635500
X00655500
X00675500
X00695500
X00715500
X00725500Y00386750
X00705500
X00685500
X00665500
X00645500
X00625500
X00605500
X00585500
X00565500
X00575500Y00366750
X00595500
X00615500
X00635500
X00655500
X00675500
X00695500
X00715500
X00725500Y00346750
X00705500
X00685500
X00665500
X00645500
X00625500
X00605500
X00585500
X00565500
X00575500Y00326750
X00595500
X00615500
X00635500
X00655500
X00675500
X00695500
X00715500
X00735500
X00705500Y00306750
X00685500
X00665500
X00645500
X00625500
X00605500
X00585500
X00565500
X00555500Y00326750
Y00366750
Y00286750
Y00246750
X00575500
X00595500
X00615500
X00635500
X00655500
X00645393Y00203827
X00875501Y00206750
X00895501
X00905501Y00266750
X00885501
X00895501Y00286750
X00905501Y00306750
X00885501
X00895501Y00326750
X00905501Y00346750
X00895501Y00366750
X00875501
X00855501
X00865501Y00386750
X00845501
X00855501Y00406750
X00875501
X00895501
X00905501Y00426750
X00885501
X00895501Y00446750
X00905501Y00466750
X00885501
X00895501Y00486750
X00875501
X00855501
X00835501
X00815501
X00795501
X00805501Y00506750
X00825501
X00845501
X00865501
X00885501
X00905501
X00895501Y00526750
X00875501
X00855501
X00835501
X00845501Y00546750
X00855501Y00566750
X00835501
X00815501
X00795501
X00775501
X00755500
X00735500
X00715500
X00695500
X00675500
X00655500
X00635500
X00615500
X00595500
X00575500
X00555500
Y00526750
X00585500Y00546750
X00605500
X00645500
X00665500
X00675500Y00526750
X00655500
X00635500
X00735500
X00731134Y00513983
X00756984Y00511332
X00755500Y00526750
X00761622Y00495868
X00762729Y00479516
X00752722Y00466494
X00761500Y00457575
X00748195Y00450580
X00765732Y00432279
X00785501Y00426750
X00797752Y00422182
X00795501Y00406750
X00775501
X00805501Y00386750
X00815501Y00366750
X00825501Y00346750
X00835501Y00406750
X00845501Y00426750
X00825501
Y00466750
X00845501
X00805501
X00785501
X00795501Y00446750
X00785501Y00506750
Y00546750
X00744391Y00487691
X00905501Y00386750
X00835501Y00286750
X00535500
X00515500
X00495500
X00475500
X00455500
X00435500
X00415500
X00395500
X00375500
X00355500
X00335500
X00315500
X00295500
X00275500
X00255500
X00235500
X00215500
X00195500
X00175500
X00155500
X00165500Y00306750
X00185500
X00205500
X00225500
X00245500
X00265500
X00285500
X00305500
X00325500
X00345500
X00365500
X00385500
X00405500
X00425500
X00445500
X00465500
X00485500
X00505500
X00525500
X00545500
X00535500Y00326750
X00515500
X00495500
X00475500
X00455500
X00435500
X00415500
X00395500
X00375500
X00355500
X00335500
X00315500
X00295500
X00275500
X00255500
X00235500
X00215500
X00195500
X00175500
X00155500
X00165500Y00346750
X00185500
X00205500
X00225500
X00245500
X00265500
X00285500
X00305500
X00325500
X00345500
X00365500
X00385500
X00405500
X00425500
X00445500
X00465500
X00485500
X00505500
X00525500
X00545500
X00535500Y00366750
X00515500
X00495500
X00475500
X00455500
X00435500
X00415500
X00395500
X00375500
X00355500
X00335500
X00315500
X00295500
X00275500
X00255500
X00235500
X00215500
X00195500
X00175500
X00155500
X00165500Y00386750
X00185500
X00205500
X00225500
X00245500
X00265500
X00285500
X00305500
X00325500
X00345500
X00365500
X00385500
X00405500
X00425500
X00445500
X00465500
X00485500
X00505500
X00525500
X00545500
X00535500Y00406750
X00515500
X00495500
X00475500
X00455500
X00435500
X00415500
X00395500
X00375500
X00355500
X00335500
X00315500
X00295500
X00275500
X00255500
X00235500
X00215500
X00195500
X00175500
X00155500
X00165500Y00426750
X00185500
X00205500
X00225500
X00245500
X00265500
X00285500
X00305500
X00325500
X00345500
X00365500
X00385500
X00405500
X00425500
X00445500
X00465500
X00485500
X00505500
X00525500
X00545500
X00535500Y00446750
X00515500
X00495500
X00475500
X00455500
X00435500
X00415500
X00395500
X00375500
X00355500
X00335500
X00315500
X00295500
X00275500
X00255500
X00235500
X00215500
X00195500
X00175500
X00155500
X00165500Y00466750
X00185500
X00205500
X00225500
X00245500
X00265500
X00285500
X00305500
X00325500
X00345500
X00365500
X00385500
X00405500
X00425500
X00445500
X00465500
X00485500
X00505500
X00525500
X00545500
X00535500Y00526750
Y00566750
X00515500
X00495500
X00475500
X00455500
X00435500
X00415500
X00395500
X00375500
X00355500
X00335500
X00315500
X00295500
X00275500
X00255500
X00235500
X00215500
X00195500
X00175500
X00155500
X00165500Y00546750
X00185500
X00205500
X00225500
X00245500
X00255500Y00526750
X00235500
X00215500
X00195500
X00175500
X00155500
X00165500Y00506750
X00185500
X00205500
X00225500
X00245500
X00265500
X00285500
X00305500
X00325500
X00345500
X00365500
X00385500
X00395500Y00486750
X00415500
X00425500Y00506750
X00445500
X00465500
X00485500
X00505500
X00475500Y00526750
X00465500Y00546750
X00415500Y00526750
X00375500Y00486750
X00355500
X00335500
X00315500
X00295500
X00275500
X00255500
X00235500
X00215500
X00195500
X00175500
X00155500
X00315500Y00526750
X00335500
X00345500Y00266750
X00365500
X00385500
X00405500
X00425500
X00445500
X00465500
X00485500
X00505500
X00525500
X00545500
X00535500Y00246750
X00515500
X00495500
X00475500
X00455500
X00435500
X00415500
X00395500
X00375500
X00355500
X00335500
X00315500
X00295500
X00275500
X00255500
X00235500
X00215500
X00195500
X00175500
X00155500
X00165500Y00266750
X00185500
X00205500
X00225500
X00245500
X00265500
X00285500
X00305500
X00325500
Y00226750
X00345500
X00365500
X00385500
X00405500
X00425500
X00445500
X00465500
X00485500
X00505500
X00525500
X00545500
X00535500Y00206750
X00515500
X00495500
X00475500
X00455500
X00435500
X00415500
X00395500
X00375500
X00355500
X00335500
X00315500
X00295500
X00275500
X00255500
X00235500
X00215500
X00195500
X00175500
X00155500
X00165500Y00226750
X00185500
X00205500
X00225500
X00245500
X00265500
X00285500
X00305500
X00145500
X00125500
X00105500
X00085500
X00065500
X00045500
X00025500
X00035500Y00246750
X00055500
X00075500
X00095500
X00115500
X00135500
X00145500Y00266750
X00125500
X00105500
X00085500
X00065500
X00045500
X00025500
X00035500Y00286750
X00055500
X00075500
X00095500
X00115500
X00135500
X00145500Y00306750
X00125500
X00105500
X00085500
X00065500
X00045500
X00025500
X00035500Y00326750
X00055500
X00075500
X00095500
X00115500
X00135500
X00145500Y00346750
X00125500
X00105500
X00085500
X00065500
X00045500
X00025500
X00035500Y00366750
X00055500
X00075500
X00095500
X00115500
X00135500
X00145500Y00386750
X00125500
X00105500
X00085500
X00065500
X00045500
X00025500
X00035500Y00406750
X00055500
X00075500
X00095500
X00115500
X00135500
X00145500Y00426750
X00125500
X00105500
X00085500
X00065500
X00045500
X00025500
X00035500Y00446750
X00055500
X00075500
X00095500
X00115500
X00135500
X00145500Y00466750
X00125500
X00105500
X00085500
X00065500
X00045500
X00025500
X00035500Y00486750
X00055500
X00075500
X00095500
X00115500
X00135500
X00145500Y00506750
X00125500
X00105500
X00085500
X00065500
X00045500
X00025500
X00035500Y00526750
X00055500
X00075500
X00095500
X00115500
X00135500
X00145500Y00546750
X00125500
X00105500
X00085500
X00065500
X00075500Y00566750
X00095500
X00115500
X00135500
X00055500
X00015500Y00526750
Y00486750
Y00446750
Y00406750
Y00366750
Y00326750
Y00286750
Y00246750
Y00206750
X00035500
X00055500
X00075500
X00095500
X00115500
X00135500
T02
X00698831Y00245154
X00774945Y00272214
X00767719Y00286666
X00783958Y00330281
X00773566Y00414145
X00775123Y00435104
X00763177Y00466959
T03
X00172140Y00047027
X00197540
X00222940
X00248340
X00273740
X00299140
X00324540
X00349940
X00375340
X00400740
X00443340Y00047027
X00468740
X00494140
X00519540
X00544940
X00570340
X00595740
X00621140
X00866264Y00112868
Y00138268
Y00163668
Y00189069
X00866177Y00275782
Y00301182
Y00326582
Y00351982
X00866264Y00435070
Y00460470
X00821176Y00538014
X00795776
X00770376
X00744976
X00719576
X00694176
X00618940Y00537027
X00593540
X00568140
X00542740
X00517340
X00491940
X00451540
X00426140
X00400740
X00375340
X00349940
X00324540
X00299140
X00273740
T04
X00026573Y00026599
X00886527Y00026973
Y00556032
X00026199Y00557154
M30
