G04 Layer_Color=255*
%FSLAX43Y43*%
%MOMM*%
G71*
G01*
G75*
%ADD10R,0.900X0.900*%
%ADD11R,1.200X1.200*%
%ADD12R,0.900X0.900*%
%ADD16C,0.127*%
%ADD17C,1.600*%
%ADD18R,1.600X1.600*%
%ADD19C,3.500*%
%ADD20R,1.600X1.600*%
D10*
X73603Y43555D02*
D03*
X75203D02*
D03*
X73603Y47640D02*
D03*
X75203D02*
D03*
D11*
X74828Y24369D02*
D03*
Y22269D02*
D03*
D12*
X81519Y43704D02*
D03*
Y45304D02*
D03*
X79168Y22277D02*
D03*
Y23877D02*
D03*
D16*
X0Y-0D02*
Y58351D01*
X91322D01*
Y-0D02*
Y58351D01*
X0Y-0D02*
X91322D01*
D17*
X45154Y53703D02*
D03*
X40074D02*
D03*
X34994D02*
D03*
X29914D02*
D03*
X32454D02*
D03*
X37534D02*
D03*
X42614D02*
D03*
X59574Y4703D02*
D03*
X54494D02*
D03*
X49414D02*
D03*
X46874D02*
D03*
X51954D02*
D03*
X57034D02*
D03*
X62114D02*
D03*
X61894Y53703D02*
D03*
X56814D02*
D03*
X51734D02*
D03*
X54274D02*
D03*
X59354D02*
D03*
X37534Y4703D02*
D03*
X32454D02*
D03*
X27374D02*
D03*
X22294D02*
D03*
X19754D02*
D03*
X24834D02*
D03*
X29914D02*
D03*
X34994D02*
D03*
X40074D02*
D03*
X86626Y46047D02*
D03*
X86618Y35198D02*
D03*
Y30118D02*
D03*
Y32658D02*
D03*
X82118Y53801D02*
D03*
X77038D02*
D03*
X71958D02*
D03*
X74498D02*
D03*
X79578D02*
D03*
X86626Y18907D02*
D03*
Y13827D02*
D03*
Y16367D02*
D03*
D18*
X27374Y53703D02*
D03*
X44334Y4703D02*
D03*
X49194Y53703D02*
D03*
X17214Y4703D02*
D03*
X69418Y53801D02*
D03*
D19*
X88653Y55603D02*
D03*
X2620Y55715D02*
D03*
X2657Y2660D02*
D03*
X88653Y2697D02*
D03*
D20*
X86626Y43507D02*
D03*
X86618Y27578D02*
D03*
X86626Y11287D02*
D03*
M02*
